{"title":"Riddick 2013 WEBRIP X264 AC3 UNiQUE","uid":9112118,"size":1715496618,"categoryP":"video","categoryS":"movies","magnet":"?xt=urn:btih:6ba1e3252c249ff412449339176bac5670df8a5c&amp;dn=Riddick+2013+WEBRIP+X264+AC3+UNiQUE&amp;tr=udp%3A%2F%2Ftracker.openbittorrent.com%3A80&amp;tr=udp%3A%2F%2Fopen.demonii.com%3A1337&amp;tr=udp%3A%2F%2Ftracker.coppersurfer.tk%3A6969&amp;tr=udp%3A%2F%2Fexodus.desync.com%3A6969","seeders":35,"leechers":0,"uploader":"xxxlavalxxx","files":-1,"time":1382921652,"description":" &lt;a href=&quot;\nhttp://www.imdb.com/title/tt1411250/&quot; rel=&quot;nofollow&quot; target=&quot;_NEW&quot;&gt;\nhttp://www.imdb.com/title/tt1411250/&lt;/a&gt;\n\n\n\nLeft for dead on a sun-scorched planet, Riddick finds himself up against an alien race of predators. Activating an emergency beacon alerts two ships: one carrying a new breed of mercenary, the other captained by a man from Riddick's past. \n\n\n\nDirector:\n David Twohy \n\nWriters:\n David Twohy, Jim Wheat (based on characters created by)\n\nStars:\n Vin Diesel, Karl Urban, Katee Sackhoff \n\nGenres:\n  Action |  Sci-Fi |  Thriller \n\nCountry:\n USA | UK \n\nLanguage:\n English \n\n\n\nGeneral\nFormat                                   : Matroska\nFormat version                           : Version 2\nFile size                                : 1.60 GiB\nDuration                                 : 1h 53mn\nOverall bit rate mode                    : Variable\nOverall bit rate                         : 2 012 Kbps\nEncoded date                             : UTC 2013-10-28 10:19:59\nWriting application                      : mkvmerge v6.5.0 ('Isn't she lovely' built on Oct 20 2013 12:50:05\nWriting library                          : libebml v1.3.0 + libmatroska v1.4.1\n\nVideo\nID                                       : 1\nFormat                                   : AVC\nFormat/Info                              : Advanced Video Codec\nFormat profile                           : &lt;a class=&quot;__cf_email__&quot; href=&quot;/cdn-cgi/l/email-protection&quot; data-cfemail=&quot;89c1e0eee1c9c5bda7b8&quot;&gt;[email&amp;#160;protected]&lt;/a&gt;&lt;script cf-hash='f9e31' type=&quot;text/javascript&quot;&gt;\n/* &lt;![CDATA[ */!function(){try{var t=&quot;currentScript&quot;in document?document.currentScript:function(){for(var t=document.getElementsByTagName(&quot;script&quot;),e=t.length;e--;)if(t[e].getAttribute(&quot;cf-hash&quot;))return t[e]}();if(t&amp;&amp;t.previousSibling){var e,r,n,i,c=t.previousSibling,a=c.getAttribute(&quot;data-cfemail&quot;);if(a){for(e=&quot;&quot;,r=parseInt(a.substr(0,2),16),n=2;a.length-n;n+=2)i=parseInt(a.substr(n,2),16)^r,e+=String.fromCharCode(i);e=document.createTextNode(e),c.parentNode.replaceChild(e,c)}}}catch(u){}}();/* ]]&gt; */&lt;/script&gt;\nFormat settings, CABAC                   : Yes\nFormat settings, ReFrames                : 3 frames\nCodec ID                                 : V_MPEG4/ISO/AVC\nDuration                                 : 1h 53mn\nBit rate mode                            : Variable\nBit rate                                 : 1 818 Kbps\nMaximum bit rate                         : 40.0 Mbps\nWidth                                    : 720 pixels\nHeight                                   : 352 pixels\nDisplay aspect ratio                     : 2.045\nFrame rate                               : 23.976 fps\nColor space                              : YUV\nChroma subsampling                       : 4:2:0\nBit depth                                : 8 bits\nScan type                                : Progressive\nBits/(Pixel*Frame)                       : 0.299\nStream size                              : 1.41 GiB (88%)\nWriting library                          : x264 core 138 r2358 9e941d1\nDefault                                  : Yes\nForced                                   : No\n\nAudio\nID                                       : 2\nFormat                                   : AC-3\nFormat/Info                              : Audio Coding 3\nMode extension                           : CM (complete main)\nFormat settings, Endianness              : Big\nCodec ID                                 : A_AC3\nDuration                                 : 1h 53mn\nBit rate mode                            : Constant\nBit rate                                 : 192 Kbps\nChannel(s)                               : 2 channels\nChannel positions                        : Front: L R\nSampling rate                            : 44.1 KHz\nBit depth                                : 16 bits\nCompression mode                         : Lossy\nStream size                              : 156 MiB (10%)\nLanguage                                 : English\nDefault                                  : Yes\nForced                                   : No\n\n\nThanks to the Original Uploader and the UNiQUE group\n&quot;Source KingStoner THX&quot;\n\n\n &lt;a href=&quot;\nhttp://i.imgur.com/OF0hIqF.png&quot; rel=&quot;nofollow&quot; target=&quot;_NEW&quot;&gt;\nhttp://i.imgur.com/OF0hIqF.png&lt;/a&gt; &lt;a href=&quot;\nhttp://i.imgur.com/zzdwNTU.png&quot; rel=&quot;nofollow&quot; target=&quot;_NEW&quot;&gt;\nhttp://i.imgur.com/zzdwNTU.png&lt;/a&gt; &lt;a href=&quot;\nhttp://i.imgur.com/43M0uxX.png&quot; rel=&quot;nofollow&quot; target=&quot;_NEW&quot;&gt;\nhttp://i.imgur.com/43M0uxX.png&lt;/a&gt;","torrent":{"xt":"urn:btih:6ba1e3252c249ff412449339176bac5670df8a5c","amp;dn":"Riddick+2013+WEBRIP+X264+AC3+UNiQUE","amp;tr":["udp%3A%2F%2Ftracker.openbittorrent.com%3A80","udp%3A%2F%2Fopen.demonii.com%3A1337","udp%3A%2F%2Ftracker.coppersurfer.tk%3A6969","udp%3A%2F%2Fexodus.desync.com%3A6969"],"infoHash":"6ba1e3252c249ff412449339176bac5670df8a5c","infoHashBuffer":{"type":"Buffer","data":[107,161,227,37,44,36,159,244,18,68,147,57,23,107,172,86,112,223,138,92]},"announce":[],"urlList":[]}}